<svg width="25" height="18" viewBox="0 0 25 18" fill="none" xmlns="http://www.w3.org/2000/svg">
<path d="M20.7849 0.830136C20.4011 0.722208 20.0054 0.67424 19.5857 0.67424H5.19524C4.77552 0.67424 4.37978 0.722208 3.99604 0.830136C1.93341 1.36978 0.398438 3.25252 0.398438 5.47104V12.6662C0.398438 15.3045 2.557 17.4631 5.19524 17.4631H19.5857C22.2239 17.4631 24.3825 15.3045 24.3825 12.6662V5.47104C24.3825 3.25252 22.8475 1.36978 20.7849 0.830136ZM17.1873 6.70622V11.7668C17.1873 13.1339 16.072 14.2492 14.7049 14.2492C13.3378 14.2492 12.2226 13.1339 12.2226 11.7668C12.2226 10.3998 13.3378 9.2845 14.7049 9.2845C14.9447 9.2845 15.1726 9.33247 15.3884 9.39243V7.88144L11.3711 8.97271V12.8221C11.3711 12.8341 11.3711 12.8461 11.3591 12.8581C11.3471 14.2132 10.2319 15.3165 8.87679 15.3165C7.5097 15.3165 6.39444 14.2012 6.39444 12.8221C6.39444 11.4431 7.5097 10.3398 8.87679 10.3398C9.11663 10.3398 9.34448 10.3878 9.57232 10.4477V8.28917V6.4304C9.57232 5.39909 10.2199 4.55965 11.2032 4.29583L14.3811 3.42041C15.4004 3.14459 16.048 3.40842 16.4078 3.68423C16.7675 3.96005 17.1873 4.49969 17.1873 5.56698V6.70622Z" fill="#EFEEE0" fill-opacity="0.25"/>
</svg>
